<?xml version="1.0" encoding="UTF-8"?>
<svg id="Livello_1" data-name="Livello 1" xmlns="http://www.w3.org/2000/svg" viewBox="0 0 256 256">
  <defs>
    <style>
      .cls-1 {
        fill: #dfd0bd;
        stroke-width: 0px;
      }
    </style>
  </defs>
  <path class="cls-1" d="M226.64,53.97c-2.05-5.61-5.79-8.33-11.45-8.33h-.02c-39.91.03-79.83.03-119.74.03h-54.7c-7.04,0-11.42,4.4-11.42,11.47,0,15.37,0,30.74,0,46.1v10.64s0,.32,0,.32c0,.45,0,.9.06,1.34.33,2.13,2.1,3.59,4.23,3.49,2.08-.07,3.65-1.52,3.9-3.59.06-.51.06-1.03.05-1.54v-.47s0-55.6,0-55.6c0-.21-.02-.44-.04-.67-.02-.24-.06-.65-.01-.76l.26-.43c.32-.53,1.06-1.78,1.45-1.84,1.62-.25,3.31-.21,5.09-.16.45.01.9.02,1.35.03v8.42c0,5.26-.01,10.51,0,15.77.02,8.98,5.85,14.78,14.84,14.78,45.02,0,90.05,0,135.08,0,8.96,0,14.76-5.82,14.78-14.83.01-5.32.01-10.65,0-15.97v-8.25s.55,0,.55,0c1.46-.01,2.92-.02,4.37-.01,2.42.02,3.16.77,3.17,3.21,0,4.57,0,9.14,0,13.71v5.59s0,13.7,0,13.7c0,11.42,0,22.83-.01,34.25-.01,6.81-3.83,12.47-9.96,14.78-3.29,1.24-6.66,1.14-10.23,1.03-1.35-.04-2.75-.08-4.14-.05v-1.04c0-1.29,0-2.49,0-3.69-.06-8.95-5.84-14.74-14.74-14.75-7.04-.01-14.08,0-21.13,0h-8.3s-1.75,0-1.75,0c-1.47-.01-2.93-.02-4.4.03-2.28.08-3.98,1.74-4.05,3.95-.07,2.27,1.6,4.06,3.99,4.24.44.03.88.03,1.32.02h10.53c8.05,0,16.09,0,24.14,0,2.97,0,5.18,1.42,5.64,3.61.39,1.86.45,3.79.52,5.83.02.61.04,1.23.07,1.85h-10.39c-8.3,0-16.6,0-24.9,0-1.47,0-2.75.49-3.6,1.36-.74.76-1.11,1.76-1.08,2.88.07,2.38,1.94,3.99,4.65,3.99,4.58,0,9.17.01,13.75.02,5.2,0,10.47.02,15.76.02,7.79,0,15.64-.02,23.42-.09,8.31-.07,15.02-3.92,19.41-11.13,1.21-1.98,1.94-4.22,2.65-6.4.32-.97.64-1.94.99-2.89l.06-.15V54.27l-.05-.3ZM202.1,78.35c0,4.31-2.13,6.4-6.48,6.4-45.07,0-90.14,0-135.22,0-4.37,0-6.5-2.09-6.5-6.37-.01-6.34,0-12.67,0-19.01v-5.36h148.15c.03.29.05.57.05.85v1.42c0,7.36.02,14.71,0,22.06Z"/>
  <path class="cls-1" d="M85.75,97.78c-14.97-.04-29.11,5.76-39.8,16.39-10.68,10.62-16.59,24.74-16.64,39.74-.05,15.03,5.77,29.18,16.39,39.85,10.64,10.69,24.8,16.58,39.87,16.61h.09c30.95,0,56.16-25.18,56.22-56.18.06-30.98-25.12-56.29-56.13-56.4ZM85.6,106.02h.07c12.83.02,24.89,5.05,33.96,14.16,9.06,9.11,14.04,21.21,14.02,34.07-.05,26.41-21.59,47.87-48.01,47.87h-.07c-12.87-.02-24.95-5.04-34.02-14.15-9.05-9.09-14.02-21.17-13.98-34,.08-26.45,21.62-47.94,48.05-47.94Z"/>
  <path class="cls-1" d="M197.32,171.48c0-1.41.77-2.87,2.3-4.36,2.47-2.41,3.95-5.38,4.16-8.34v-.03c.15-4.64-2.54-5.38-3.71-5.49-1.07-.1-2.1.22-2.89.89-.91.77-1.46,1.95-1.57,3.34-.14,1.83-1.09,3.12-2.48,4.5-2.6,2.57-4.03,5.93-4.04,9.46-.01,3.55,1.42,6.94,4.02,9.55,3.41,3.43,3.42,5.84.04,9.22-2.56,2.55-3.91,5.67-4.03,9.28-.08,2.4,1.57,4.22,3.91,4.32.07,0,.14,0,.21,0,2.2,0,3.84-1.5,4.03-3.72.15-1.85.93-3.37,2.5-4.91,2.66-2.6,4.12-6,4.12-9.55,0-3.61-1.5-7.07-4.22-9.74-1.55-1.52-2.33-3.01-2.33-4.42Z"/>
  <path class="cls-1" d="M154.93,171.47c0-1.41.77-2.86,2.36-4.43,2.65-2.61,4.04-5.72,4.12-9.24.06-2.55-1.52-4.42-3.85-4.56-2.27-.12-4.13,1.57-4.31,3.96-.13,1.75-.86,3.16-2.44,4.72-2.65,2.6-4.11,5.99-4.12,9.54,0,3.56,1.44,6.97,4.09,9.6,1.69,1.68,2.51,3.18,2.51,4.57,0,1.38-.81,2.86-2.48,4.5-2.55,2.53-3.93,5.64-4.1,9.25-.11,2.4,1.48,4.26,3.79,4.43.12,0,.24.01.35.01,2.2,0,3.79-1.49,4.02-3.8.18-1.88.95-3.38,2.41-4.75,2.75-2.56,4.14-5.81,4.15-9.65,0-3.72-1.37-6.97-4.09-9.66-1.62-1.6-2.4-3.07-2.4-4.5Z"/>
  <path class="cls-1" d="M177.73,171.54c0-1.4.82-2.91,2.52-4.61,2.36-2.36,3.75-5.29,4.01-8.46v-.04c.1-3.02-1.37-5.01-3.83-5.18-2.34-.14-4.15,1.57-4.35,4.11-.13,1.64-.85,3-2.42,4.54-2.67,2.63-4.14,6.03-4.14,9.59,0,3.59,1.49,7.04,4.2,9.7,1.59,1.56,2.36,3,2.37,4.41,0,1.43-.79,2.91-2.42,4.52-2.68,2.65-4.06,5.84-4.1,9.46-.03,2.32,1.51,4.06,3.73,4.23.12,0,.25.01.37.01,1.02,0,1.97-.33,2.7-.96.8-.69,1.28-1.69,1.36-2.84.13-1.8.86-3.26,2.38-4.74,2.69-2.62,4.19-6.03,4.2-9.61.02-3.59-1.45-7.03-4.14-9.69-1.64-1.62-2.44-3.08-2.44-4.46Z"/>
  <path class="cls-1" d="M193.04,115.83c.06,0,.12,0,.19,0,1.01,0,1.98-.39,2.74-1.1.82-.76,1.3-1.83,1.32-2.92.03-1.13-.38-2.18-1.13-2.96-.75-.78-1.78-1.21-2.91-1.22-1.15,0-2.18.43-2.97,1.21-.78.78-1.21,1.8-1.2,2.88.02,2.12,1.83,4,3.95,4.1Z"/>
  <path class="cls-1" d="M206.31,115.84c1.09-.01,2.1-.45,2.85-1.23.77-.8,1.19-1.87,1.16-3-.03-1.13-.47-2.15-1.25-2.89-.79-.74-1.83-1.12-2.98-1.08-2.18.08-3.95,1.91-3.95,4.07,0,1.07.46,2.13,1.25,2.91.78.77,1.83,1.21,2.88,1.21h.05Z"/>
  <path class="cls-1" d="M193.63,71.77c-.51-.06-1.02-.05-1.53-.04h-.48s-63.43,0-63.43,0h-63.81s-.47,0-.47,0c-.51,0-1.02-.01-1.53.04-2.05.23-3.56,1.8-3.67,3.83-.11,2.14,1.33,3.94,3.43,4.29.4.07.8.08,1.19.08.15,0,.3,0,.44,0h128.03s.41,0,.41,0c.53,0,1.07.02,1.63-.08,2.1-.34,3.55-2.15,3.44-4.28-.11-2.03-1.61-3.61-3.66-3.84Z"/>
  <path class="cls-1" d="M62.51,66.9c.35.04.69.05,1.04.05.16,0,.33,0,.49,0h.47s63.42,0,63.42,0h63.62s.41,0,.41,0c.67,0,1.35.01,2.04-.13,2.09-.42,3.46-2.28,3.27-4.41-.18-2.04-1.68-3.49-3.81-3.67-.46-.04-.92-.04-1.39-.03h-127.83s-.38,0-.38,0c-.4,0-.81,0-1.21.02-2.33.16-3.92,1.77-3.96,4-.04,2.2,1.52,3.92,3.8,4.18Z"/>
  <path class="cls-1" d="M49.39,146.97c.4.16.81.28,1.23.41.21.06.43.13.64.2l6.19,2.04c-.14.07-.27.14-.41.21l-2.64,1.34c-1.73.88-3.46,1.75-5.18,2.66-1.76.93-2.57,2.53-2.23,4.4.36,1.97,1.77,3.24,3.67,3.33,1.16.05,2.33-.46,3.12-.85,2.44-1.21,4.87-2.45,7.3-3.68,2.16-1.1,4.33-2.2,6.5-3.28.77-.38,1.19-.42,1.32-.38,2.75.83,5.48,1.73,8.3,2.65l1.73.57c-.4.54-.79,1.07-1.18,1.6-1.51,2.05-2.94,3.99-4.3,6.02-.6.89-1.3,1.31-2.51,1.49-4.09.62-8.18,1.27-12.27,1.93l-2.07.33c-2.23.36-3.68,1.06-4.46,2.15-.55.77-.73,1.71-.54,2.78.74,4.1,5.06,3.37,6.48,3.14,2.08-.35,4.17-.66,6.39-.99l1.16-.18c-.06.09-.12.17-.18.25-.5.69-1.01,1.38-1.51,2.07-1.04,1.42-2.08,2.84-3.08,4.29-1.39,2.03-1.08,4.34.77,5.76,1.89,1.45,4.26,1.07,5.89-.95.36-.45.7-.92,1.03-1.39l3.8-5.19c.05.3.1.57.14.85.14.89.28,1.78.41,2.67.29,1.88.57,3.77.92,5.64.46,2.42,2.27,3.8,4.61,3.51,2.27-.28,3.64-2.09,3.5-4.61-.02-.41-.07-.82-.13-1.22-.2-1.25-.39-2.5-.57-3.75-.46-3.05-.93-6.2-1.56-9.28-.51-2.47-.12-4.17,1.35-5.88,1.33-1.55,2.48-3.18,3.69-4.91.3-.43.6-.85.9-1.28.38.52.77,1.04,1.14,1.55,1.57,2.14,3.06,4.15,4.46,6.24.41.62.64,1.6.53,2.34-.43,3.08-.92,6.15-1.42,9.21-.34,2.08-.67,4.16-.98,6.24-.44,2.91.82,4.95,3.29,5.34.26.04.52.06.77.06.97,0,1.83-.31,2.52-.92.83-.73,1.36-1.84,1.59-3.3.37-2.38.75-4.75,1.16-7.25l.2-1.25c.04.05.08.1.12.16l1.64,2.26c1.02,1.42,2.05,2.83,3.1,4.23,1.27,1.68,3.07,2.24,4.59,1.44,1.25-.65,2.37-1.97,2.73-3.22.33-1.16-.41-2.61-1.09-3.63-1.21-1.81-2.5-3.56-3.86-5.41-.17-.23-.34-.46-.51-.7.1.01.19.03.29.04.84.13,1.67.28,2.5.42,1.84.31,3.74.64,5.64.85,1.24.14,2.93.13,3.89-.71.99-.87,1.68-2.58,1.6-3.96-.11-1.81-1.51-3.05-3.82-3.41-4.96-.77-9.93-1.54-14.88-2.35l-.55-.08c-.48-.06-1.38-.19-1.55-.4-1.79-2.25-3.46-4.57-5.22-7.02-.39-.54-.78-1.09-1.18-1.63l1.8-.59c2.56-.84,4.97-1.63,7.43-2.34.68-.2,1.63-.13,2.22.16,3.07,1.49,6.11,3.05,9.15,4.61,1.71.88,3.42,1.75,5.14,2.62,2.43,1.23,4.82.63,5.94-1.48,1.16-2.2.29-4.5-2.21-5.87-.45-.25-.91-.48-1.37-.72l-6.57-3.34,1.18-.38c2.29-.74,4.41-1.42,6.53-2.15,1.44-.5,2.51-1.5,2.95-2.74.39-1.11.24-2.3-.42-3.35-1.17-1.85-2.94-2.45-5.15-1.71-2.12.71-4.25,1.38-6.53,2.11l-1.18.38.61-1.2c1.15-2.26,2.21-4.36,3.26-6.46,1.38-2.77.85-5.1-1.42-6.25-2.3-1.16-4.51-.23-5.91,2.5l-2.83,5.54c-1.43,2.8-2.85,5.59-4.3,8.38-.13.26-.54,1.04-.77,1.14-2.73.95-5.47,1.82-8.37,2.75l-1.72.55v-1.92c-.02-2.7-.04-5.25.06-7.81.02-.67.4-1.53.89-2.05,2.1-2.22,4.32-4.41,6.45-6.54l3.17-3.15c.63-.61,1.25-1.22,1.83-1.88,1.57-1.8,1.5-4.25-.17-5.82-1.64-1.54-3.85-1.52-5.63.04-.46.41-.89.85-1.32,1.29l-5.25,5.34c-.01-.2-.01-.4-.01-.62,0-.77,0-1.55,0-2.32.01-1.82.02-3.7-.06-5.55-.12-2.4-1.9-4.12-4.25-3.99-2.2.08-3.74,1.66-3.92,4.03-.05.63-.04,1.27-.04,1.9v6.2c-1.87-1.58-3.56-3.27-5.21-4.9l-.75-.75c-.61-.61-1.31-1.29-2.19-1.64-1.95-.78-3.78-.21-4.89,1.52-1.18,1.83-.92,3.75.72,5.4,1.71,1.72,3.42,3.43,5.13,5.14,2.12,2.12,4.24,4.23,6.39,6.41.21.21.69.69.73.88.07,2.96.06,5.93.05,8.99v1.77c-.58-.19-1.14-.38-1.7-.57-2.12-.72-4.13-1.39-6.2-1.91-1.78-.44-2.83-1.37-3.74-3.3-1.76-3.74-3.7-7.45-5.57-11.05l-1-1.92c-.63-1.21-1.58-2.06-2.68-2.41-1.01-.32-2.08-.21-3.09.32-2.07,1.08-2.72,3.39-1.62,5.74.41.87.86,1.73,1.3,2.59l2.84,5.57c-.77-.25-1.53-.5-2.3-.75-1.9-.63-3.8-1.25-5.71-1.83-2.29-.69-4.43.37-5.21,2.58-.76,2.15.31,4.29,2.59,5.2Z"/>
</svg>