<?xml version="1.0" encoding="UTF-8"?>
<svg id="Livello_2" data-name="Livello 2" xmlns="http://www.w3.org/2000/svg" viewBox="0 0 28.87 16">
  <defs>
    <style>
      .cls-1 {
        fill: #b7ab9d;
        stroke-width: 0px;
      }
    </style>
  </defs>
  <g id="Livello_1-2" data-name="Livello 1">
    <g>
      <path class="cls-1" d="M27.51,4.88c-.75,0-1.36.61-1.36,1.36v.4H2.72V2.56c0-.75-.61-1.36-1.36-1.36s-1.36.61-1.36,1.36v12.08c0,.75.61,1.36,1.36,1.36s1.36-.61,1.36-1.36v-1.56h23.42v1.56c0,.75.61,1.36,1.36,1.36s1.36-.61,1.36-1.36V6.24c0-.75-.61-1.36-1.36-1.36Z"/>
      <path class="cls-1" d="M4.57,2.6l5.78,2.68c.68.32,1.49.02,1.81-.66.32-.68.02-1.49-.66-1.81L5.71.13c-.68-.32-1.49-.02-1.81.66-.32.68-.02,1.49.66,1.81Z"/>
    </g>
  </g>
</svg>