<?xml version="1.0" encoding="UTF-8"?>
<svg id="Livello_1" data-name="Livello 1" xmlns="http://www.w3.org/2000/svg" viewBox="0 0 256 256">
  <defs>
    <style>
      .cls-1 {
        fill: #dfd0bd;
        stroke-width: 0px;
      }
    </style>
  </defs>
  <path class="cls-1" d="M211.29,107.81c-4.12-2.23-8.25-4.45-12.39-6.67l-8.07-4.34c-.2-.11-.39-.22-.58-.34,3.07-2.97,4.85-7.05,4.93-11.38.08-4.3-1.54-8.45-4.49-11.59l5.41-2.07c.06.35.11.71.16,1.06.8,5.8,3.67,10.69,8.53,14.55,2.92,2.32,5.87,3.55,9.01,3.75,2.38.15,3.99-1.12,4.39-3.42.39-2.24-.64-3.98-2.83-4.76-.35-.13-.71-.21-1.07-.3l-.22-.05c-5.26-1.3-9.7-7.21-9.51-12.65.04-1.25.35-1.7,1.37-2.01,1.83-.55,3.77-1.3,6.11-2.37,4.12-1.89,6.38-5.28,6.53-9.8.13-3.98.13-8.19,0-12.51-.17-5.9-4.86-10.54-10.68-10.55-19.26-.05-39.18-.11-59.19.03-9.54.07-17.6,6.27-20.54,15.81-2.9,9.43.27,19.17,8.09,24.82.49.35.98.69,1.48,1.03-2.82,3.39-4.23,7.53-3.98,11.77.24,3.97,1.9,7.65,4.59,10.26l-16.07,17.19c-3.82-11.84-11.29-16.5-24.64-15.43-2.48-6.49-8.45-11.11-15.62-12.07-7.17-.96-14.08,1.91-18.07,7.48-.12.14-.59.3-.78.26-5.73-.88-11.27.77-15.61,4.64-4.46,3.98-7.08,9.89-6.86,15.42.09,2.25.63,4.48,1.15,6.64.15.61.29,1.22.43,1.83h-.37c-1.29-.02-2.71-.03-4.13.02-4.94.18-8.88,3.47-10.03,8.36-1.18,5.02.87,9.71,5.22,11.96.92.47,1.06.84,1.05,1.87v4.27c-.04,14.59-.08,29.69,0,44.53.08,16.68,13.72,30.37,30.4,30.5,13.19.11,23.95.11,33.86-.01,9.71-.11,17.81-4.12,24.07-11.9.22-.27.43-.55.65-.83,6.7,8.63,15.54,12.83,26.97,12.83.26,0,.53,0,.79,0,10.52-.17,21.21-.14,31.56-.1,4.77.02,9.56.04,14.32.03,18.49,0,31.92-13.46,31.93-31.98,0-18.27,0-36.55,0-54.82,0-13.05-5.82-22.8-17.28-29ZM69.85,99.9c2.37-4.21,6.57-6.38,10.94-5.7,5.04.8,8.4,3.9,9.48,8.75.07.32.14.65.2.98.32,1.76,1.05,2.96,2.17,3.59,1.18.65,2.71.61,4.55-.13,1.96-.79,4.06-1.53,5.96-1.46,3.38.08,6.48,1.84,8.53,4.84,2.12,3.11,2.65,6.97,1.42,10.32-.31.84-.55,1.01-1.53,1-7.24-.04-14.48-.03-21.73-.03h-6.9s-7.1,0-7.1,0c-7.05,0-14.08-.01-21.12.04h-.05c-1.2,0-1.99-.37-2.8-1.31-3.3-3.84-3.57-9.43-.67-13.92,2.1-3.25,5.19-4.97,8.77-4.97,1.14,0,2.32.17,3.54.53,3.27.95,4.69.38,6.34-2.53ZM125.01,130.63c1.28.25,1.91,1,1.93,2.3.02,1.28-.61,2.07-1.87,2.34-.41.09-.89.08-1.4.07h-.47s-50.36,0-50.36,0c-11.17,0-22.34,0-33.51-.05-1.12,0-2.24-.34-2.72-.8-.41-.39-.67-1.59-.48-2.21.17-.56,1.16-1.2,1.98-1.74.12-.04.5-.02.74,0,.21.01.41.03.6.03h84.3c.46-.01.88-.02,1.26.05ZM128.03,200.17c.09-1.84.24-3.67.39-5.5.22-2.68.45-5.45.46-8.19.09-12.85.02-25.92-.04-38.55l-.02-3.18c0-1.36.2-1.94,1.37-2.54,3.64-1.86,5.77-6.14,5.19-10.4-.64-4.71-3.55-8.2-7.79-9.32-.53-.14-1.07-.24-1.8-.38l-.2-.04c.24-.56.44-1.04.73-1.32,6.42-6.49,12.94-13,19.39-19.34.38-.38,1.13-.68,1.67-.69,9.6-.06,19.91-.06,31.54-.01.69,0,1.47.2,2.1.54l2.75,1.46c7.97,4.25,16.22,8.64,24.26,13.07,7.92,4.36,11.96,11.15,12,20.17.09,19.78.06,39.53.01,56.24-.04,13.22-9.62,22.85-22.78,22.89-16.51.05-32.7.09-49.18-.02-8.61-.05-15.2-3.94-19.6-11.54-.51-.88-.5-2.33-.46-3.34ZM210.1,54.52c.03,1.72-.58,2.66-2.13,3.25-4.65,1.77-9.3,3.54-13.95,5.32-4.83,1.85-9.66,3.69-14.5,5.53-.47.18-1.05.27-1.68.28l-6.37.02c-7.3.02-14.84.05-22.26-.04-6.78-.08-12.62-5.29-13.58-12.14-.94-6.7,3.26-13.22,9.76-15.16,1.42-.42,3.05-.65,4.84-.66,4.53-.03,9.07-.04,13.61-.04,2.37,0,4.73,0,7.1,0h35.53c2.97,0,3.61.66,3.61,3.67,0,1.14,0,2.28,0,3.43,0,2.18-.02,4.37.02,6.55ZM150.06,77.43c9.68-.03,19.35-.03,29.02,0,2.23,0,4.25.81,5.69,2.27,1.34,1.36,2.07,3.19,2.05,5.15-.04,4.13-3.35,7.26-7.69,7.3-3.41.02-6.83.02-10.24.01h-4.48s-4.35,0-4.35,0c-3.32,0-6.64,0-9.95-.01-2.45-.01-4.49-.78-5.91-2.22-1.3-1.32-1.98-3.12-1.96-5.21.04-4.42,3.1-7.28,7.81-7.29ZM120.39,167.7c0,7.96,0,15.92,0,23.87-.01,13.82-9.64,23.49-23.42,23.5-10.44.01-20.89.02-31.33,0-13.35-.02-23.07-9.67-23.1-22.95-.03-10.96-.02-21.92-.01-32.88v-15.25h77.87v23.7Z"/>
  <path class="cls-1" d="M68.55,67c4.62.29,7.74,2.86,9.53,7.88.58,1.61.81,3.43,1.03,5.19l.14,1.09c.34,2.55,1.92,4.09,4.21,4.11h.06c2.33,0,3.99-1.6,4.24-4.08.03-.34.04-.67.04-1.01,0-.23,0-.45.02-.68.48-7.09,4.14-11.3,10.89-12.52,2.25-.41,3.57-1.93,3.62-4.19.05-2.36-1.67-4.11-4.18-4.25-3.66-.2-6.41-2.01-7.94-5.23-1.22-2.57-1.8-5.56-2.39-8.64-.71-3.68-2.8-4.44-4.41-4.38-2.44.05-4.03,1.76-4.15,4.45-.17,3.8-1.13,6.89-2.93,9.45-1.97,2.78-4.66,4.25-8.23,4.48-2.11.14-3.47,1.85-3.37,4.26.1,2.39,1.52,3.9,3.82,4.04ZM80.04,62.81l3.47-3.96,3.48,3.96-3.48,3.95-3.47-3.95Z"/>
  <path class="cls-1" d="M181.91,169.57c6.04,1.03,9.04,3.87,10.37,9.8.21.92.3,1.86.4,2.85.07.67.13,1.34.23,2,.34,2.26,1.89,3.59,4.13,3.59.03,0,.07,0,.1,0,2.31-.04,3.85-1.43,4.11-3.72.05-.49.1-.99.15-1.48l.12-1.21c.74-6.89,4.09-10.54,10.86-11.85,2.26-.44,3.52-2.01,3.46-4.32-.06-2.38-1.52-3.94-3.8-4.07-4.7-.28-7.76-2.83-9.61-8.05-.5-1.41-.7-2.94-.9-4.57-.08-.59-.15-1.17-.24-1.75-.38-2.42-2-3.89-4.33-3.92h-.05s-.05,0-.05,0c-2.08.22-3.44,1.35-3.83,3.18-.17.81-.23,1.63-.29,2.42l-.06.77c-.58,6.67-4.31,10.79-10.78,11.9-2.3.4-3.61,1.93-3.61,4.21,0,2.28,1.32,3.81,3.62,4.21ZM193.61,165.36l3.49-3.96,3.49,3.95-3.48,3.97-3.49-3.96Z"/>
  <path class="cls-1" d="M200.45,45.65c-5.42-.02-10.84-.02-16.26-.01h-6.37s-6.4,0-6.4,0c-5.41,0-10.82,0-16.23,0-1.69,0-3.04.52-3.91,1.5-.76.85-1.08,1.96-.94,3.23.27,2.39,2,3.77,4.77,3.77,5.84.01,11.68.01,17.51.01h6.37s5.34,0,5.34,0c1.75,0,3.53.01,5.31.01,3.57,0,7.18-.02,10.75-.1,1.37-.03,3.31-.81,4.19-2.08.86-1.24.98-2.67.33-3.93-.77-1.49-2.48-2.42-4.45-2.43Z"/>
</svg>