<?xml version="1.0" encoding="UTF-8"?>
<svg id="Livello_2" data-name="Livello 2" xmlns="http://www.w3.org/2000/svg" viewBox="0 0 62.89 131.62">
  <defs>
    <style>
      .cls-1 {
        fill: #e2d5c3;
      }

      .cls-1, .cls-2, .cls-3 {
        stroke: #e2d5c3;
        stroke-miterlimit: 10;
      }

      .cls-4, .cls-5 {
        stroke-width: 0px;
      }

      .cls-4, .cls-2 {
        fill: none;
      }

      .cls-5, .cls-3 {
        fill: none;
      }
    </style>
  </defs>
  <g id="Livello_1-2" data-name="Livello 1">
    <path class="cls-5" d="m51.65,3.17c-3.1,2.65-5.92,5.63-8.4,8.88h-.19c-3.31-4.34-7.22-8.19-11.61-11.43-4.39,3.24-8.3,7.1-11.61,11.43h-.19c-2.48-3.25-5.3-6.23-8.4-8.88C4.66,8.85.5,17.24.5,26.62c0,7.74,2.84,14.82,7.54,20.24h23.4s0,.08,0,.12c0-.04,0-.08,0-.12h23.4c4.7-5.43,7.54-12.5,7.54-20.24,0-9.37-4.16-17.77-10.74-23.44Z"/>
    <g>
      <polygon class="cls-4" points="11.22 12.05 53.36 12.05 54.85 46.86 8.04 46.86 11.22 12.05"/>
      <circle class="cls-2" cx="31.45" cy="34.43" r="12.43"/>
      <g>
        <path class="cls-2" d="m19.74,12.17c-7.32,9.64-11.68,21.65-11.7,34.69C3.34,41.43.5,34.36.5,26.62.5,17.24,4.66,8.85,11.24,3.17c3.14,2.69,5.99,5.7,8.5,9Z"/>
        <path class="cls-2" d="m43.15,12.17c-7.35,9.67-11.7,21.73-11.7,34.81,0-13.08-4.36-25.14-11.7-34.81,3.33-4.38,7.27-8.28,11.7-11.55,4.43,3.27,8.37,7.16,11.7,11.55Z"/>
        <path class="cls-2" d="m43.15,12.17c-7.35,9.67-11.7,21.73-11.7,34.81,0-13.08-4.36-25.14-11.7-34.81,3.33-4.38,7.27-8.28,11.7-11.55,4.43,3.27,8.37,7.16,11.7,11.55Z"/>
        <path class="cls-2" d="m62.39,26.62c0,7.74-2.84,14.82-7.54,20.24-.03-13.03-4.38-25.05-11.7-34.69,2.5-3.3,5.35-6.31,8.5-9,6.58,5.67,10.74,14.07,10.74,23.44Z"/>
      </g>
    </g>
    <line class="cls-3" x1="31.45" y1="39.91" x2="31.45" y2="128.62"/>
    <circle class="cls-1" cx="31.45" cy="128.12" r="3"/>
  </g>
</svg>