<?xml version="1.0" encoding="UTF-8"?>
<svg id="Livello_1" data-name="Livello 1" xmlns="http://www.w3.org/2000/svg" viewBox="0 0 269.34 206.51">
  <defs>
    <style>
      .cls-1 {
        fill: #e1d1bf;
        stroke-width: 0px;
      }
    </style>
  </defs>
  <path class="cls-1" d="m222.58,11.98l-1.42-1.23-1.43,1.22c-12.85,10.98-24.58,23.3-34.95,36.63-14.03-18.04-30.44-34.06-48.82-47.64l-1.3-.96-1.3.96c-18.39,13.58-34.79,29.6-48.82,47.64-10.37-13.33-22.1-25.65-34.95-36.63l-1.43-1.22-1.42,1.23C17.04,37.61,0,74.8,0,114c0,32.37,11.65,63.65,32.8,88.09l3.83,4.42v-5.85c.12-52.69,16.68-102.7,47.93-144.84,9.88,13.32,18.29,27.43,25.17,42.16-18.06,9.14-30.47,27.87-30.47,49.45,0,30.55,24.86,55.41,55.41,55.41s55.41-24.86,55.41-55.41c0-21.59-12.42-40.31-30.47-49.46,6.89-14.73,15.3-28.84,25.17-42.16,31.24,42.14,47.81,92.16,47.92,144.84v5.85s3.84-4.42,3.84-4.42c21.15-24.44,32.8-55.72,32.8-88.09,0-39.21-17.04-76.4-46.76-102.02ZM32.35,194.69c-18.08-22.92-27.98-51.34-27.98-80.68,0-37.31,15.95-72.72,43.83-97.47,12.35,10.72,23.65,22.7,33.62,35.64-31.12,41.53-48.15,90.65-49.46,142.51Zm51.29-47.24c0-19.82,11.37-37.03,27.92-45.47,13.41,30.11,20.53,62.71,20.9,96.45-27.12-1.16-48.82-23.58-48.82-50.98Zm51.03,20.44c-3.12-23.51-9.55-46.25-19.13-67.74,5.91-2.4,12.37-3.73,19.13-3.73s13.22,1.33,19.13,3.73c-9.58,21.49-16.01,44.23-19.13,67.74Zm51.03-20.44c0,27.4-21.7,49.81-48.82,50.98.37-33.74,7.49-66.34,20.9-96.45,16.55,8.45,27.92,25.65,27.92,45.47Zm-30.09-51.28c-6.47-2.65-13.54-4.12-20.95-4.12s-14.48,1.47-20.95,4.12c-7.19-15.39-16.02-30.11-26.41-43.99,13.6-17.66,29.52-33.37,47.36-46.73,17.84,13.36,33.76,29.07,47.36,46.73-10.4,13.88-19.22,28.6-26.42,43.99Zm31.91-43.99c9.97-12.94,21.26-24.92,33.62-35.64,27.88,24.75,43.83,60.16,43.83,97.47,0,29.34-9.9,57.77-27.98,80.68-1.31-51.87-18.34-100.99-49.46-142.51Z"/>
</svg>