<?xml version="1.0" encoding="UTF-8"?>
<svg id="Livello_1" data-name="Livello 1" xmlns="http://www.w3.org/2000/svg" viewBox="0 0 1536.66 229.92">
  <defs>
    <style>
      .cls-1 {
        fill: #f2cea6;
      }

      .cls-1, .cls-2 {
        stroke-width: 0px;
      }

      .cls-2 {
        fill: #aa9c91;
      }
    </style>
  </defs>
  <g>
    <path class="cls-2" d="m0,74.52h5.64s52.14,75.04,52.14,75.04l51.97-75.04h5.64s0,123.31,0,123.31h-5.99s0-112.92,0-112.92l-51.53,73.99h-.35S5.99,84.91,5.99,84.91v112.92s-5.99,0-5.99,0v-123.31Z"/>
    <path class="cls-2" d="m204.93,199.95c-9.4,0-17.85-1.73-25.37-5.2-7.52-3.46-13.98-8.13-19.38-14-5.4-5.87-9.54-12.62-12.42-20.26-2.88-7.63-4.32-15.68-4.32-24.13v-.35c0-8.46,1.47-16.5,4.4-24.13,2.93-7.63,7.07-14.38,12.42-20.26,5.34-5.87,11.8-10.54,19.38-14,7.57-3.46,16.06-5.2,25.46-5.2s17.7,1.73,25.28,5.2c7.58,3.47,14.06,8.13,19.47,14,5.4,5.87,9.54,12.63,12.42,20.26,2.88,7.64,4.32,15.68,4.32,24.13.23,0,.23.12,0,.35,0,8.46-1.47,16.5-4.4,24.13-2.94,7.64-7.08,14.39-12.42,20.26-5.35,5.87-11.83,10.54-19.47,14-7.64,3.46-16.09,5.2-25.37,5.2Zm.35-5.46c8.25,0,15.76-1.56,22.53-4.67,6.77-3.11,12.58-7.31,17.41-12.6,4.83-5.29,8.6-11.45,11.31-18.5,2.71-7.05,4.07-14.45,4.07-22.2v-.35c0-7.75-1.36-15.15-4.07-22.2-2.71-7.05-6.51-13.24-11.4-18.58-4.89-5.34-10.75-9.6-17.58-12.77-6.83-3.17-14.37-4.76-22.62-4.76s-15.79,1.56-22.62,4.67c-6.83,3.11-12.67,7.31-17.5,12.6-4.83,5.28-8.6,11.45-11.31,18.5-2.71,7.05-4.06,14.45-4.06,22.2v.35c0,7.75,1.35,15.15,4.06,22.2,2.71,7.05,6.54,13.24,11.49,18.58,4.95,5.35,10.84,9.6,17.67,12.77,6.83,3.17,14.37,4.76,22.62,4.76Z"/>
    <path class="cls-2" d="m294.35,74.52h5.64s52.14,75.04,52.14,75.04l51.97-75.04h5.64s0,123.31,0,123.31h-5.99s0-112.92,0-112.92l-51.53,73.99h-.35s-51.53-73.99-51.53-73.99v112.92s-5.99,0-5.99,0v-123.31Z"/>
    <path class="cls-2" d="m489.39,73.64h5.64l58.49,124.19h-6.52l-16.74-35.94h-76.28l-16.91,35.94h-6.17l58.49-124.19Zm38.23,82.8l-35.58-75.75-35.41,75.75h70.99Z"/>
    <path class="cls-2" d="m1039.71,199.95c-8.69,0-16.74-1.67-24.13-5.02s-13.8-7.87-19.2-13.56c-5.4-5.7-9.6-12.39-12.6-20.08-2.99-7.69-4.49-15.94-4.49-24.75v-.35c0-8.69,1.5-16.88,4.49-24.57,3-7.69,7.19-14.45,12.6-20.26,5.4-5.81,11.83-10.42,19.29-13.83,7.46-3.41,15.59-5.11,24.4-5.11,5.75,0,10.89.5,15.41,1.5,4.52,1,8.66,2.38,12.42,4.14,3.76,1.76,7.19,3.82,10.31,6.17,3.11,2.35,6.19,4.93,9.25,7.75l-4.23,4.4c-2.58-2.47-5.32-4.81-8.19-7.05-2.88-2.23-6.08-4.2-9.6-5.9-3.52-1.7-7.37-3.05-11.54-4.05-4.17-1-8.84-1.5-14-1.5-7.87,0-15.12,1.53-21.76,4.58-6.64,3.06-12.39,7.22-17.26,12.51-4.87,5.28-8.69,11.45-11.45,18.5-2.76,7.05-4.14,14.56-4.14,22.55v.35c0,7.99,1.38,15.5,4.14,22.55,2.76,7.05,6.61,13.21,11.54,18.5,4.93,5.29,10.75,9.46,17.44,12.51,6.69,3.06,13.92,4.58,21.67,4.58,9.63,0,17.97-1.88,25.02-5.64,7.05-3.76,13.33-8.46,18.85-14.09l4.23,4.05c-2.94,2.94-6.08,5.7-9.42,8.28-3.35,2.58-7.02,4.82-11.01,6.69-3.99,1.88-8.31,3.38-12.95,4.49-4.64,1.11-9.66,1.67-15.06,1.67Z"/>
    <path class="cls-2" d="m1183.33,73.64h5.64l58.49,124.19h-6.52l-16.74-35.94h-76.28l-16.91,35.94h-6.17l58.49-124.19Zm38.23,82.8l-35.58-75.75-35.41,75.75h70.99Z"/>
    <path class="cls-2" d="m1334.99,199.6c-9.63,0-18.47-1.67-26.51-5.02-8.05-3.35-15.59-8.25-22.64-14.71l4.05-4.4c6.58,6.23,13.53,10.89,20.88,14,7.34,3.11,15.53,4.67,24.58,4.67,5.28,0,10.1-.67,14.45-2.03,4.34-1.35,8.07-3.26,11.19-5.73,3.11-2.47,5.49-5.34,7.13-8.63,1.64-3.29,2.47-6.87,2.47-10.75v-.35c0-3.64-.59-6.87-1.76-9.69-1.18-2.82-3.2-5.34-6.08-7.58-2.88-2.23-6.78-4.26-11.71-6.08-4.93-1.82-11.1-3.49-18.5-5.02-7.52-1.52-13.95-3.29-19.29-5.28-5.35-2-9.69-4.32-13.04-6.96-3.35-2.64-5.79-5.7-7.31-9.16-1.53-3.46-2.29-7.43-2.29-11.89v-.35c0-4.34,1-8.46,2.99-12.33,2-3.88,4.76-7.28,8.28-10.22,3.52-2.93,7.72-5.22,12.59-6.87,4.87-1.64,10.25-2.47,16.12-2.47,8.46,0,16.09,1.26,22.9,3.79,6.81,2.53,13.15,6.08,19.03,10.66l-3.7,4.76c-11.51-9.16-24.37-13.74-38.58-13.74-5.05,0-9.66.7-13.83,2.11-4.17,1.41-7.72,3.32-10.66,5.73-2.94,2.41-5.2,5.17-6.78,8.28-1.58,3.11-2.38,6.37-2.38,9.78v.35c0,3.52.59,6.69,1.76,9.51,1.17,2.82,3.2,5.37,6.08,7.66,2.88,2.29,6.78,4.35,11.71,6.17,4.93,1.82,11.16,3.5,18.67,5.02,7.63,1.53,14.12,3.32,19.47,5.37,5.34,2.06,9.66,4.43,12.95,7.13,3.29,2.7,5.67,5.76,7.13,9.16,1.47,3.41,2.2,7.28,2.2,11.63v.35c0,4.82-1,9.22-3,13.21-2,3.99-4.79,7.49-8.37,10.48-3.58,2.99-7.93,5.31-13.04,6.96-5.11,1.64-10.83,2.47-17.18,2.47Z"/>
    <path class="cls-2" d="m1472.54,73.64h5.64l58.49,124.19h-6.52l-16.74-35.94h-76.28l-16.91,35.94h-6.17l58.49-124.19Zm38.23,82.8l-35.58-75.75-35.41,75.75h70.99Z"/>
  </g>
  <path class="cls-1" d="m857.09,13.27l-1.42-1.23-1.43,1.22c-14.44,12.34-27.62,26.19-39.25,41.18-15.72-20.26-34.12-38.25-54.74-53.49l-1.3-.96-1.3.96c-20.63,15.24-39.03,33.23-54.74,53.49-11.63-14.99-24.82-28.84-39.25-41.18l-1.43-1.22-1.42,1.23c-33.17,28.61-52.2,70.12-52.2,113.89,0,36.13,13.01,71.05,36.62,98.34l3.83,4.42v-5.85c.13-59.09,18.75-115.17,53.86-162.4,11.2,15.06,20.71,31.02,28.49,47.7-20.23,10.14-34.16,31.06-34.16,55.19,0,34.02,27.68,61.7,61.7,61.7s61.7-27.68,61.7-61.7c0-24.13-13.93-45.05-34.16-55.19,7.78-16.67,17.29-32.63,28.49-47.7,35.11,47.23,53.72,103.31,53.84,162.4v5.85s3.84-4.42,3.84-4.42c23.61-27.28,36.62-62.21,36.62-98.34,0-43.77-19.03-85.28-52.2-113.89Zm-212.31,204.83c-20.54-25.77-31.79-57.83-31.79-90.94,0-41.87,17.93-81.61,49.26-109.34,13.94,12.08,26.68,25.59,37.92,40.19-34.98,46.61-54.07,101.81-55.4,160.09Zm56.85-53.55c0-22.36,12.88-41.76,31.6-51.21,15.12,33.85,23.13,70.52,23.51,108.48-30.58-1.17-55.11-26.4-55.11-57.27Zm57.32,24.88c-3.39-27.06-10.71-53.23-21.74-77.91,6.71-2.76,14.05-4.29,21.74-4.29s15.03,1.53,21.74,4.29c-11.03,24.69-18.35,50.85-21.74,77.91Zm57.33-24.88c0,30.87-24.53,56.1-55.11,57.27.38-37.95,8.39-74.63,23.51-108.48,18.72,9.44,31.6,28.84,31.6,51.21Zm-33.77-57.02c-7.26-3.01-15.22-4.68-23.56-4.68s-16.3,1.67-23.56,4.68c-8.08-17.33-18.01-33.91-29.73-49.52,15.29-19.88,33.2-37.56,53.28-52.57,20.08,15.02,37.99,32.69,53.29,52.57-11.72,15.61-21.65,32.19-29.73,49.52Zm35.22-49.52c11.23-14.6,23.98-28.11,37.92-40.19,31.33,27.73,49.26,67.47,49.26,109.34,0,33.11-11.25,65.17-31.79,90.94-1.33-58.27-20.41-113.47-55.39-160.09Z"/>
</svg>