<?xml version="1.0" encoding="UTF-8"?>
<svg id="Livello_1" data-name="Livello 1" xmlns="http://www.w3.org/2000/svg" viewBox="0 0 256 256">
  <defs>
    <style>
      .cls-1 {
        fill: #dfd0bd;
        stroke-width: 0px;
      }
    </style>
  </defs>
  <path class="cls-1" d="M98.82,231.64c-1.83-1.13-2.6-2.89-3.14-4.9-7.99-29.85-16.04-59.68-23.99-89.55-.5-1.89-1.58-2.73-3.12-3.56-16.18-8.72-26.37-22.13-29.87-40.09-6-30.79,12.72-59.95,43.2-67.43,17.58-4.31,33.73-.48,48.5,9.91,5.39,3.79,10.95,7.4,16.71,10.59,8.76,4.86,18.39,6.23,28.31,6.22,2.5,0,4.47-.62,6.43-2.16,5.36-4.19,10.9-8.16,16.3-12.31,4.29-3.31,9.06-3.3,13.84-1.88,3.8,1.13,5.88,4.11,6.29,8.11.08.8.11,1.61.11,2.42,0,23.6-.02,47.21.03,70.81.01,4.67-1.4,8.66-5.94,10.26-4.73,1.67-9.67,1.8-14.06-1.5-5.98-4.5-11.94-9.02-17.99-13.43-.95-.69-2.29-1.12-3.47-1.16-14.08-.57-26.85,3.39-38.46,11.32-5.28,3.6-10.65,7.08-16.17,10.73,1.8,6.85,3.64,13.85,5.52,21,.68-.17,1.25-.27,1.81-.44,7.33-2.29,14.13,1.5,16.04,8.99.53,2.09.98,4.2,1.41,6.31,1.33,6.63-1.9,12.21-8.33,14.45-.88.3-1.74.65-2.7,1.01,1.8,6.67,3.49,13.25,5.36,19.78,1.75,6.1,3.39,12.15-.5,18.31,6.43,0,12.48.24,18.5-.08,3.94-.21,6.57-3.69,6.61-7.89.06-7.08.01-14.16.03-21.24,0-.8.05-1.62.22-2.4.47-2.17,2.08-3.35,4.23-3.17,1.98.16,3.43,1.6,3.57,3.72.11,1.61.06,3.23.06,4.85,0,5.73-.15,11.47.04,17.2.29,8.81-5.54,15.76-13.55,17-.12.02-.22.14-.33.22h-61.52ZM176.09,60.8c-1.52,0-2.92.03-4.32,0-10.04-.24-19.76-2.14-28.55-7.08-6.68-3.75-12.96-8.21-19.42-12.36-17.38-11.15-35.34-12.18-53.31-1.97-14.45,8.21-22.71,21.11-24.54,37.64-1.61,14.44,2.52,27.39,12.18,38.33,8.61,9.76,19.57,15.34,32.51,16.63,12.41,1.24,23.73-1.97,34.03-9.07,5.32-3.67,10.76-7.19,16.34-10.46,6.67-3.9,13.84-6.65,21.58-7.59,4.46-.54,8.95-.84,13.52-1.25v-42.82ZM103.24,223.54c7.45,0,14.73,0,22.01,0,7.66,0,11.44-5.01,9.42-12.44-4.29-15.79-8.56-31.58-12.85-47.37-.27-1-.61-1.99-.96-3.12-11.02,3.62-22.15,4.53-33.7,3.69,5.42,19.97,10.74,39.58,16.07,59.24ZM204.05,120.52c5.28,1.33,6.25.62,6.25-4.39,0-22.86,0-45.72,0-68.57,0-.67.11-1.39-.08-2.01-.18-.58-.65-1.45-1.07-1.49-2.03-.23-4.13-.72-6.02.71-5.92,4.47-11.87,8.89-17.76,13.39-.54.41-1.01,1.3-1.01,1.96-.06,14.83-.05,29.67-.02,44.5,0,.55.16,1.32.53,1.61,3.54,2.75,7.14,5.42,11.09,8.39v-2.59c0-9.71,0-19.42.01-29.13,0-.87.05-1.77.29-2.59.54-1.85,1.98-2.77,3.8-2.75,1.73.02,3.13.92,3.66,2.67.27.88.32,1.86.32,2.79.02,12.47.01,24.94.01,37.51ZM114.74,137.11c-11.32,3.83-22.72,4.18-34.45,1.29,1.52,5.75,2.9,11.1,4.41,16.4.15.51,1.14,1.1,1.75,1.11,6.25.06,12.53.35,18.75-.13,4.56-.35,9.03-1.74,13.59-2.68-.11-.85-.12-1.19-.2-1.5-1.25-4.74-2.51-9.48-3.84-14.49ZM133.91,177.33c5.14-1.27,6.01-2.63,4.94-7.42-.25-1.11-.52-2.22-.77-3.33-1.03-4.6-3.87-5.8-7.99-3.3,1.26,4.63,2.52,9.27,3.82,14.05Z"/>
  <path class="cls-1" d="M197.98,166.85c0,6.88-.01,13.76,0,20.64.02,5.42,3.12,8.55,8.5,8.6,2.56.03,5.13-.06,7.69.05,1.89.08,3.42.94,3.98,2.86.46,1.59.14,3.11-1.23,4.2-.51.4-1.19.84-1.79.84-4.3-.03-8.72.41-12.89-.4-7.71-1.5-12.33-7.89-12.35-16.05-.04-13.83,0-27.66-.02-41.48,0-4.79-3.14-8.25-7.48-8.39-4.04-.13-7.46,2.49-7.97,6.51-.35,2.73-.22,5.52-.24,8.28-.03,3.64.02,7.29-.02,10.93-.03,2.82-1.64,4.63-4,4.63-2.26,0-4.04-1.76-4.04-4.43,0-6.74-.11-13.5.31-20.21.47-7.57,7.38-13.58,15.2-13.8,7.78-.21,14.96,5.42,15.94,12.97.53,4.12.34,8.34.4,12.52.06,3.91.01,7.82.01,11.74Z"/>
  <path class="cls-1" d="M174.15,178.19c.01,2.23-1.71,4.02-3.91,4.06-2.23.04-4.17-1.9-4.13-4.11.05-2.17,1.89-3.94,4.08-3.93,2.23.01,3.95,1.73,3.96,3.98Z"/>
  <path class="cls-1" d="M94.94,45.37c20.43.01,37.06,16.63,37.06,37.03,0,20.34-16.75,37.09-37.08,37.08-20.38-.01-37.02-16.69-37.02-37.1,0-20.44,16.6-37.02,37.04-37.01ZM95,53.46c-15.98-.05-28.98,12.87-29.01,28.86-.03,15.96,12.92,29,28.86,29.06,15.86.07,29-13.02,29.04-28.92.04-15.94-12.92-28.94-28.9-29Z"/>
  <path class="cls-1" d="M204.03,64.62c-.05,2.19-1.85,3.93-4.06,3.92-2.28-.01-4.1-1.91-4-4.18.1-2.18,1.95-3.89,4.15-3.82,2.2.07,3.95,1.89,3.91,4.07Z"/>
  <path class="cls-1" d="M80.75,64.35c1.52.89,2.78,1.33,3.63,2.18,8.2,8.1,16.34,16.25,24.47,24.43,1.99,2,2.07,4.43.38,6.1-1.66,1.65-4.13,1.54-6.11-.42-8.17-8.13-16.31-16.29-24.46-24.44-1.34-1.34-2.16-3.01-1.18-4.72.69-1.21,2.07-2.02,3.27-3.12Z"/>
  <path class="cls-1" d="M94.52,101.45c-1.04,1.29-1.69,2.77-2.78,3.26-1.09.49-3.14.54-3.88-.16-5.85-5.55-11.54-11.26-17.14-17.06-1.31-1.35-.81-3.64.55-4.95,1.29-1.24,3.31-1.48,4.83-.5.62.4,1.17.9,1.69,1.42,4.72,4.7,9.46,9.38,14.11,14.15.98,1,1.61,2.35,2.61,3.84Z"/>
  <path class="cls-1" d="M98.18,57.88c.49.26,1.66.59,2.42,1.33,5.21,5.09,10.36,10.24,15.48,15.43,1.87,1.9,1.87,4.32.2,5.94-1.67,1.63-4.01,1.57-5.94-.32-5.14-5.07-10.23-10.18-15.32-15.31-1.27-1.28-1.88-2.82-1.09-4.61.68-1.56,1.89-2.41,4.25-2.47Z"/>
</svg>