<?xml version="1.0" encoding="UTF-8"?>
<svg id="Livello_2" data-name="Livello 2" xmlns="http://www.w3.org/2000/svg" viewBox="0 0 19 16">
  <defs>
    <style>
      .cls-1 {
        fill: #b7ab9d;
        stroke-width: 0px;
      }
    </style>
  </defs>
  <g id="Livello_2-2" data-name="Livello 2">
    <path class="cls-1" d="M10.72.16c.12.06.24.14.34.24.53.53.53,1.39,0,1.92l-3.34,3.34c-.26.26-.6.4-.96.4H2.72v7.22h13.56v-7.22h-2.55c-.75,0-1.36-.61-1.36-1.36h0c0-.75.61-1.36,1.36-1.36h3.91c.75,0,1.36.61,1.36,1.36v9.94c0,.75-.61,1.36-1.36,1.36H1.36c-.75,0-1.36-.61-1.36-1.36V4.7c0-.75.61-1.36,1.36-1.36h4.84l1.8-1.8.29-.29.85-.85c.43-.43,1.07-.51,1.58-.24Z"/>
  </g>
</svg>