<?xml version="1.0" encoding="UTF-8"?>
<svg id="Livello_1" data-name="Livello 1" xmlns="http://www.w3.org/2000/svg" viewBox="0 0 256 256">
  <defs>
    <style>
      .cls-1 {
        fill: #dfd0bd;
        stroke-width: 0px;
      }
    </style>
  </defs>
  <path class="cls-1" d="M233.5,61.65l-.18-.03-.18.05c-2.86.78-3.61,1.82-3.61,5.06v105.1c0,4.27-.63,4.91-4.83,4.91H31.21c-4.09,0-4.76-.67-4.76-4.77V60.52c0-4.09.71-4.8,4.74-4.8h187.15c3.53,0,4.51-.68,5.25-3.64l.05-.22-.07-.22c-.86-2.84-1.82-3.49-5.13-3.49H30.44s-.35,0-.35,0c-.32,0-.65,0-.97.01-4.21.27-7.32,2.31-9.25,6.06-.18.35-.38.68-.58,1.01l-.42.7v120.66l.19.23c.07.08.14.15.21.23.05.05.13.13.14.15,1.97,4.81,5.68,7.19,11,7.14,3.07-.04,6.15-.03,9.22-.02h4.92s-.8,1.17-.8,1.17c-1.18,1.7-2.27,3.29-3.35,4.88-1.74,2.57-2.37,5.27-1.88,8.02.84,4.69,3.67,7.82,8.19,9.08.99.28,1.98.41,2.96.41,3.47,0,6.72-1.7,8.9-4.79,4.57-6.45,8.94-12.86,12.25-17.73.55-.81,1.03-1.06,2.04-1.06h0c39.62.04,75.66.04,110.16,0h0c1.03,0,1.54.28,2.17,1.21,3.7,5.44,7.54,11.01,11.75,17.04,3.86,5.53,10.47,6.94,15.72,3.35,5.31-3.64,6.37-10.38,2.51-16.04-.99-1.45-1.99-2.9-3.04-4.42l-.76-1.1h3.66c3.85.02,7.58.03,11.31-.02,6.19-.07,10.69-4.58,10.7-10.73.01-18.62.01-37.24.01-55.85,0-17.19,0-34.37.01-51.56,0-2.57-1.22-4.08-3.62-4.51ZM203.96,199.18c-2.68-3.7-5.24-7.42-7.95-11.36-.8-1.16-1.6-2.33-2.42-3.51h1.11c2.36-.01,4.51-.02,6.66.04.46.01.98.26,1.09.41,2.82,3.92,5.07,7.17,7.06,10.2,1.05,1.61.7,3.54-.85,4.71-.8.6-1.79.87-2.71.73-.81-.12-1.5-.54-1.99-1.22ZM62.4,184.31c-.8,1.16-1.59,2.3-2.36,3.43-2.7,3.93-5.26,7.63-7.91,11.33-1.09,1.52-3.07,1.8-4.7.67-1.62-1.13-2.05-3.08-1.03-4.65,2.3-3.54,4.8-7.07,7.17-10.39.1-.13.55-.35.9-.36,1.49-.03,2.97-.04,4.51-.04.77,0,1.56,0,2.37,0h1.06Z"/>
  <path class="cls-1" d="M108.89,170.77h109.54c3.94,0,5.15-1.22,5.15-5.21v-98.12c0-4.69-1.06-5.77-5.68-5.77H37.75c-.3,0-.6,0-.9,0-2.98.07-4.44,1.53-4.44,4.45-.01,33.41-.01,66.82,0,100.23,0,2.96,1.46,4.4,4.45,4.41,2.51,0,5.02,0,7.53,0,3.55,0,7.1,0,10.65.02h.07c2.71,0,4.22-1.28,4.51-3.81v-.11s0-.11,0-.11c-.36-2.39-1.89-3.58-4.54-3.57-3.75.03-7.5.03-11.26.02h-3.73v-93.86h175.82v93.85h-21.11c-28.71,0-57.43,0-86.14-.02-2-.02-4.48.4-4.97,3.58l-.02.16.04.15c.7,3.01,1.67,3.7,5.18,3.7Z"/>
  <path class="cls-1" d="M86.2,163.19c-3.02.03-6.05.03-9.07,0-2.49-.06-3.98,1.21-4.32,3.57v.1s0,.1,0,.1c.17,1.75,1.08,3.83,4.41,3.83.05,0,.1,0,.15,0,2.86-.05,5.76-.05,8.62,0,3.47.04,4.38-2.05,4.56-3.83v-.11s0-.1,0-.1c-.37-2.36-1.86-3.54-4.33-3.56Z"/>
  <path class="cls-1" d="M150.98,138.36c2.56,0,3.42-2.07,4.05-3.58,3.22-7.75,6.46-15.5,9.7-23.25l4.49-10.74c.25-.61.49-1.22.68-1.85.6-1.95-.14-3.63-1.98-4.5-1.89-.89-3.76-.32-4.89,1.49-.37.59-.61,1.22-.85,1.83l-11.2,26.86-.71-1.68c-1.13-2.69-2.22-5.26-3.29-7.83l-2.61-6.27c-1.66-4-3.33-8-5.02-11.99-.6-1.43-1.7-2.41-3.02-2.69-1.14-.25-2.31.08-3.2.91-1.79,1.65-1.33,3.54-.64,5.17,4.83,11.51,9.64,23.03,14.42,34.56.59,1.41,1.48,3.55,4.08,3.55Z"/>
  <path class="cls-1" d="M101.22,101.75v31.44c0,2.02.43,3.41,1.31,4.26.62.6,1.44.91,2.45.91.05,0,.1,0,.15,0,1.71-.05,3.75-.97,3.75-5.11v-31.5s2.74,0,2.74,0c2.77,0,5.44,0,8.11-.01,2.63-.02,4.4-1.56,4.41-3.83,0-2.3-1.68-3.77-4.4-3.81-1.8-.03-3.6-.03-5.41-.02h-8.44c-5.18,0-10.37,0-15.55,0h-.01c-1.38,0-3.31.26-4.16,2.47-.47,1.21-.35,2.42.31,3.4.76,1.12,2.14,1.77,3.78,1.79,2.7.03,5.4.03,8.17.02h2.78Z"/>
  <path class="cls-1" d="M231.54,57.42s.05,0,.07,0c2.31-.04,4.1-1.9,4.09-4.23-.01-2.32-1.83-4.15-4.15-4.16h-.02c-2.28,0-4.18,1.84-4.23,4.1-.02,1.1.43,2.21,1.24,3.02.81.81,1.89,1.27,2.99,1.27Z"/>
</svg>