<?xml version="1.0" encoding="UTF-8"?>
<svg id="Livello_1" data-name="Livello 1" xmlns="http://www.w3.org/2000/svg" viewBox="0 0 256 256">
  <defs>
    <style>
      .cls-1 {
        fill: #dfd0bd;
        stroke-width: 0px;
      }
    </style>
  </defs>
  <path class="cls-1" d="M57.97,231.64c-3.05-1.33-6.38-2.24-9.09-4.08-5.48-3.71-8.24-9.25-8.27-15.85-.1-21.66-.05-43.31-.03-64.97,0-2.76,1.67-4.57,4.06-4.56,2.39.02,4.01,1.83,4.02,4.61.01,21.12,0,42.23,0,63.35,0,8.47,4.95,13.4,13.47,13.4,43.92,0,87.84,0,131.76,0,8.51,0,13.46-4.93,13.46-13.42,0-54.78,0-109.57,0-164.35,0-8.36-4.98-13.32-13.35-13.32-43.99,0-87.98,0-131.96,0-8.47,0-13.38,4.95-13.38,13.48,0,20.64,0,41.29,0,61.93,0,.67.03,1.35-.02,2.02-.18,2.3-1.92,3.95-4.09,3.92-2.1-.03-3.77-1.64-3.96-3.84-.05-.54-.02-1.08-.02-1.62,0-20.85,0-41.69,0-62.54,0-12.85,8.59-21.45,21.43-21.45,43.99,0,87.98,0,131.96,0,12.96,0,21.49,8.58,21.49,21.59,0,54.58,0,109.16,0,163.74,0,11.71-5.68,18.91-17.1,21.7-.11.03-.2.16-.3.25H57.97Z"/>
  <path class="cls-1" d="M126.09,50.66c24.12.42,43.45,8.01,59.59,23.46,2.75,2.64,2.77,4.69.09,7.39-3.52,3.54-7.05,7.06-10.58,10.59-3.21,3.21-4.72,3.23-8,.17-11.44-10.67-25.03-15.93-40.63-15.57-14.23.33-26.65,5.46-37.19,15.08-.55.5-1.07,1.03-1.63,1.51-1.95,1.64-3.96,1.65-5.79-.13-4.14-4.06-8.24-8.16-12.3-12.3-1.94-1.98-1.84-4.23.18-6.22,12.38-12.17,27.16-19.74,44.25-22.66,4.57-.78,9.23-1.02,12.01-1.31ZM177.56,77.83c-28.45-26.61-74.32-24.01-99.12.15,2.18,2.2,4.36,4.4,6.36,6.42,28.83-21.32,57.52-21.34,86.29-.1,2.03-2.03,4.26-4.25,6.48-6.46Z"/>
  <path class="cls-1" d="M128.09,85.63c12.68.2,23.7,4.52,32.94,13.25,2.67,2.52,2.69,4.63.11,7.24-3.75,3.78-7.52,7.55-11.3,11.3-2.36,2.34-4.19,2.36-6.7.19-9.34-8.12-20.9-8.12-30.23,0-2.51,2.18-4.37,2.16-6.7-.16-3.88-3.85-7.75-7.71-11.59-11.59-2.22-2.25-2.18-4.44.04-6.67,8.51-8.52,21.01-13.59,33.43-13.56ZM153.01,102.7c-15.18-12.83-37.89-10.96-49.67-.13,2.2,2.24,4.41,4.48,6.64,6.75,12.05-7.95,24.21-7.86,36.27.12,2.29-2.28,4.48-4.46,6.76-6.73Z"/>
  <path class="cls-1" d="M95.78,180.51c-1.06,2.88-1.99,5.39-2.9,7.91-1.63,4.49-3.28,8.98-4.86,13.49-.68,1.96-1.79,3.35-3.99,3.41-2.22.07-3.41-1.28-4.15-3.2-4.02-10.35-8.06-20.7-12.07-31.05-1.06-2.74-.23-4.97,2.09-5.88,2.31-.91,4.37.19,5.47,3,2.75,7.02,5.47,14.04,8.36,21.46.4-.97.68-1.6.92-2.25,2.29-6.33,4.57-12.66,6.87-18.99.87-2.4,2.22-3.58,4.12-3.51,2.18.08,3.32,1.42,4.06,3.36,2.69,7.02,5.45,14.02,8.33,21.39.52-1.31.93-2.28,1.29-3.28,2.18-6.01,4.33-12.03,6.51-18.04,1.04-2.86,3.03-4.02,5.36-3.19,2.42.86,3.27,3.09,2.23,5.99-3.7,10.26-7.43,20.5-11.11,30.76-.7,1.95-1.78,3.33-3.98,3.44-1.96.1-3.27-.97-4.22-3.39-2.74-7.01-5.47-14.03-8.35-21.42Z"/>
  <path class="cls-1" d="M156.34,189.14c0,4.06.02,7.89,0,11.71-.02,2.43-1.29,4.07-3.33,4.43-2.6.46-4.74-1.47-4.75-4.42-.03-7.76-.01-15.51-.01-23.27,0-2.77-.03-5.53.01-8.3.04-2.79,1.62-4.4,4.42-4.43,5.13-.05,10.25-.04,15.38,0,2.72.02,4.54,1.78,4.47,4.16-.07,2.32-1.83,3.89-4.49,3.91-3.83.03-7.65,0-11.58,0v8.1c2.66,0,5.33,0,8,0,1.35,0,2.7-.05,4.05.03,2.42.14,4.11,1.95,4.03,4.19-.09,2.19-1.76,3.83-4.13,3.86-3.91.05-7.82.01-12.05.01Z"/>
  <path class="cls-1" d="M128.04,146.63c-7.16.01-12.99-5.8-12.98-12.95,0-7.13,5.89-12.98,13.02-12.94,7.05.03,12.84,5.82,12.88,12.87.04,7.16-5.76,13.01-12.91,13.02ZM128.06,138.53c2.67-.03,4.85-2.27,4.79-4.93-.06-2.57-2.23-4.72-4.79-4.75-2.64-.03-4.9,2.21-4.89,4.85,0,2.67,2.22,4.86,4.89,4.83Z"/>
  <path class="cls-1" d="M140.15,185.27c0,5.05,0,10.1,0,15.15,0,3.11-1.55,4.94-4.1,4.91-2.46-.03-3.99-1.84-3.99-4.81-.01-10.23,0-20.47,0-30.7,0-3.04,1.63-4.97,4.1-4.93,2.49.04,3.99,1.91,3.99,5.04,0,5.12,0,10.23,0,15.35Z"/>
  <path class="cls-1" d="M188.73,185.08c0,5.12,0,10.23,0,15.35,0,3.11-1.55,4.94-4.11,4.9-2.46-.03-3.98-1.84-3.98-4.82-.01-10.3-.01-20.6,0-30.91,0-2.86,1.69-4.76,4.1-4.72,2.37.04,3.97,1.86,3.98,4.64.02,5.18,0,10.37,0,15.55Z"/>
  <path class="cls-1" d="M48.64,127.94c.03,2.23-1.85,4.12-4.08,4.09-2.15-.03-3.95-1.82-3.99-3.98-.03-2.23,1.85-4.11,4.08-4.09,2.15.03,3.96,1.83,3.99,3.98Z"/>
</svg>